<svg xmlns="http://www.w3.org/2000/svg" viewBox="0 0 96.95557 99.31197"><defs><style>.a,.b,.c,.d,.e,.f,.g,.h,.i,.j,.l,.m,.n,.o,.p,.q,.r,.s,.t,.u,.v{fill:#010101;}.a{stroke:#013528;}.b{stroke:#8cc63f;}.c{stroke:#2aa649;}.d{stroke:#0f1420;}.e{stroke:#5f3d16;}.f{stroke:#2b1220;}.g{stroke:#4063ae;}.h{stroke:#884d20;}.i{stroke:#6a9cd3;}.j{stroke:#225f30;}.k{fill:#231f20;}.l{stroke:#3d1d56;}.m{stroke:#562a75;}.n{stroke:#271135;}.o{stroke:#8359a5;}.p{stroke:#a88cc1;}.q{stroke:#b7abd4;}.r{stroke:#161616;}.s{stroke:#4f5e83;}.t{stroke:#8cafb3;}.u{stroke:#6e7ea7;}.v{stroke:#b4deca;}</style></defs><path class="a" d="M62.15509,28.33632h12m9,0h6m-27,1h12m9,0h6m-27,1h12m9,0h6m-24,1h3m6,0h3m3,0h3m3,0h3m-24,1h3m6,0h3m3,0h3m3,0h3m-24,1h3m6,0h3m3,0h3m3,0h3m-24,1h3m9,0h3m3,0h3m-21,1h3m9,0h3m3,0h3m-21,1h3m9,0h3m3,0h3m-18,1h3m-3,1h3m-3,1h3m0,1h3m12,0h6m-21,1h3m12,0h6m-21,1h3m12,0h6m-21,1h3m15,0h3m6,0h3m-30,1h3m15,0h3m6,0h3m-30,1h3m15,0h3m6,0h3m-33,1h3m18,0h3m3,0h6m-33,1h3m18,0h3m3,0h6m-33,1h3m18,0h3m3,0h6m-33,1h3m15,0h3m3,0h3m3,0h3m-33,1h3m15,0h3m3,0h3m3,0h3m-33,1h3m15,0h3m3,0h3m3,0h3m-45,1h9m3,0h3m27,0h3m-45,1h9m3,0h3m27,0h3m-45,1h9m3,0h3m27,0h3m-42,1h3m3,0h3m21,0h3m6,0h3m-42,1h3m3,0h3m21,0h3m6,0h3m-42,1h3m3,0h3m21,0h3m6,0h3m-42,1h3m6,0h3m21,0h6m-39,1h3m6,0h3m21,0h6m-39,1h3m6,0h3m21,0h6m-36,1h3m3,0h3m15,0h6m-30,1h3m3,0h3m15,0h6m-30,1h3m3,0h3m15,0h6m-30,1h3m3,0h6m9,0h6m3,0h3m-33,1h3m3,0h6m9,0h6m3,0h3m-33,1h3m3,0h6m9,0h6m3,0h3m-36,1h3m3,0h3m3,0h3m6,0h3m12,0h3m-39,1h3m3,0h3m3,0h3m6,0h3m12,0h3m-39,1h3m3,0h3m3,0h3m6,0h3m12,0h3m-42,1h3m3,0h3m12,0h3m15,0h3m-42,1h3m3,0h3m12,0h3m15,0h3m-42,1h3m3,0h3m12,0h3m15,0h3m-42,1h6m3,0h12m15,0h6m-42,1h6m3,0h12m15,0h6m-42,1h6m3,0h12m15,0h6m-42,1h3m6,0h3m6,0h3m9,0h6m-36,1h3m6,0h3m6,0h3m9,0h6m-36,1h3m6,0h3m6,0h3m9,0h6m-24,1h3m18,0h3m-24,1h3m18,0h3m-24,1h3m18,0h3m-21,1h6m9,0h3m-18,1h6m9,0h3m-18,1h6m9,0h3m-9,1h6m-6,1h6m-6,1h6m-9,4h3m-3,1h3m-3,1h3" transform="translate(-14.52295 -12.63237)"/><path class="b" d="M68.15509,31.33632h6m9,0h3m-18,1h6m9,0h3m-18,1h6m9,0h3m-18,1h3m-3,1h3m-3,1h3m0,1h3m-3,1h3m-3,1h3m12,4h3m-3,1h3m-3,1h3m-3,1h3m-3,1h3m-3,1h3m-6,1h3m9,0h3m-15,1h3m9,0h3m-15,1h3m9,0h3m-3,1h3m-3,1h3m-3,1h3m-36,1h3m-3,1h3m-3,1h3m-3,1h3m-3,1h3m-3,1h3m0,1h3m-3,1h3m-3,1h3" transform="translate(-14.52295 -12.63237)"/><path class="c" d="M71.15509,34.33632h6m3,0h3m-12,1h6m3,0h3m-12,1h6m3,0h3m-9,1h3m-3,1h3m-3,1h3m-6,7h3m9,0h3m-15,1h3m9,0h3m-15,1h3m9,0h3m6,4h3m-3,1h3m-3,1h3m-3,1h6m-6,1h6m-6,1h6m-33,1h3m-3,1h3m-3,1h3m6,7h3m15,0h3m-21,1h3m15,0h3m-21,1h3m15,0h3m-36,1h3m12,0h3m15,0h3m-36,1h3m12,0h3m15,0h3m-36,1h3m12,0h3m15,0h3m-27,4h3m-3,1h3m-3,1h3m15,1h3m-3,1h3m-3,1h3" transform="translate(-14.52295 -12.63237)"/><path class="d" d="M86.15509,34.33632h6m-6,1h6m-6,1h6m-27,1h3m21,0h3m-27,1h3m21,0h3m-27,1h3m21,0h3m-30,1h3m3,0h3m-9,1h3m3,0h3m-9,1h3m3,0h3m-9,1h3m18,0h3m-24,1h3m18,0h3m-24,1h3m18,0h3m-21,1h3m6,0h6m-15,1h3m6,0h6m-15,1h3m6,0h6m-9,1h3m6,0h3m-12,1h3m6,0h3m-12,1h3m6,0h3m-12,1h3m6,0h12m-21,1h3m6,0h12m-21,1h3m6,0h12m-24,1h6m3,0h6m-15,1h6m3,0h6m-15,1h6m3,0h6m-9,1h3m3,0h3m-9,1h3m3,0h3m-9,1h3m3,0h3m0,7h6m-6,1h6m-6,1h6m-24,1h6m9,0h3m6,0h3m-27,1h6m9,0h3m6,0h3m-27,1h6m9,0h3m6,0h3m-30,1h3m15,0h3m6,0h3m-30,1h3m15,0h3m6,0h3m-30,1h3m15,0h3m6,0h3m-33,1h3m15,0h3m3,0h3m6,0h3m-36,1h3m15,0h3m3,0h3m6,0h3m-36,1h3m15,0h3m3,0h3m6,0h3m-36,1h3m15,0h6m12,0h3m-39,1h3m15,0h6m12,0h3m-39,1h3m15,0h6m12,0h3m-36,1h6m21,0h9m-36,1h6m21,0h9m-36,1h6m21,0h9m-27,1h3m-3,1h3m-3,1h3m0,1h3m-3,1h3m-3,1h3" transform="translate(-14.52295 -12.63237)"/><path class="e" d="M77.15509,37.33632h3m-3,1h3m-3,1h3m-3,19h3m3,0h3m3,0h3m-15,1h3m3,0h3m3,0h3m-15,1h3m3,0h3m3,0h3m-15,1h3m-3,1h3m-3,1h3m-15,1h3m12,0h3m-18,1h3m12,0h3m-18,1h3m12,0h3m-12,4h3m-3,1h3m-3,1h3m3,1h3m-3,1h3m-3,1h3m-3,7h3m-3,1h3m-3,1h3m-3,1h3m-3,1h3m-3,1h3" transform="translate(-14.52295 -12.63237)"/><path class="f" d="M80.15509,37.33632h3m-3,1h3m-3,1h3m-9,1h3m3,0h3m-9,1h3m3,0h3m-9,1h3m3,0h3m-9,1h3m3,0h3m-9,1h3m3,0h3m-9,1h3m3,0h3m-3,1h3m-3,1h3m-3,1h3m-9,7h3m-3,1h3m-3,1h3m-3,4h3m3,0h3m-9,1h3m3,0h3m-9,1h3m3,0h3m-3,25h3m-3,1h3m-3,1h3m-9,1h3m3,0h3m-9,1h3m3,0h3m-9,1h3m3,0h3" transform="translate(-14.52295 -12.63237)"/><path class="g" d="M83.15509,37.33632h6m-6,1h6m-6,1h6m-24,1h3m15,0h3m-21,1h3m15,0h3m-21,1h3m15,0h3m-18,1h3m-3,1h3m-3,1h3m3,4h3m-3,1h3m-3,1h3m-3,1h6m-6,1h6m-6,1h6m3,1h3m-3,1h3m-3,1h3m-15,1h3m-3,1h3m-3,1h3m-3,1h3m-3,1h3m-3,1h3m9,7h3m-3,1h3m-3,1h3m-3,1h6m-6,1h6m-6,1h6m-27,1h3m15,0h3m-21,1h3m15,0h3m-21,1h3m15,0h3m-18,1h3m24,0h3m-30,1h3m24,0h3m-30,1h3m24,0h3m-21,4h3m-3,1h3m-3,1h3" transform="translate(-14.52295 -12.63237)"/><path class="h" d="M77.15509,40.33632h3m-3,1h3m-3,1h3m-3,1h3m-3,1h3m-3,1h3m6,13h3m-3,1h3m-3,1h3m-6,1h3m-3,1h3m-3,1h3m-18,4h3m-3,1h3m-3,1h3m6,19h3m-3,1h3m-3,1h3" transform="translate(-14.52295 -12.63237)"/><path class="i" d="M65.15509,43.33632h3m-3,1h3m-3,1h3m9,4h3m-3,1h3m-3,1h3m6,4h3m-3,1h3m-3,1h3m-3,13h3m-3,1h3m-3,1h3m-27,7h3m-3,1h3m-3,1h3" transform="translate(-14.52295 -12.63237)"/><path class="j" d="M74.15509,64.33632h6m9,0h3m-18,1h6m9,0h3m-18,1h6m9,0h3m-30,1h3m12,0h3m9,0h3m-30,1h3m12,0h3m9,0h3m-30,1h3m12,0h3m9,0h3m-21,7h3m-3,1h3m-3,1h3m-3,1h6m6,0h3m-15,1h6m6,0h3m-15,1h6m6,0h3m-6,1h6m-6,1h6m-6,1h6" transform="translate(-14.52295 -12.63237)"/><path class="k" d="M26.67627,102.09766v5.9082h-2.0166v3.93848h-2.0708v-3.93848h-1.98v3.93848H18.55566v-3.93848H16.53955v-5.9082H14.523V100.0752h4.06934v7.8955h1.98v-7.8955h2.07128v7.8955h1.96192v-7.8955h4.0874v2.02246Z" transform="translate(-14.52295 -12.63237)"/><path class="k" d="M32.68945,111.94434v-1.96875H30.67334v-5.96192h2.01611v-1.96875h8.1211v9.89942Zm6.06787-7.877H32.72607v5.87207h6.03125Z" transform="translate(-14.52295 -12.63237)"/><path class="k" d="M46.82324,111.94434v-1.96875h-2.0166v-5.90821H42.79v-2.02246h2.0166V100.0752h2.05274v1.96972h4.05175v2.02246H46.85938v5.87207h4.05175v2.00489Z" transform="translate(-14.52295 -12.63237)"/><path class="k" d="M56.96,108.00586v1.93359h6.06836v2.00489H56.92383v-1.96875h-2.0166v-5.96192h2.0166v-1.96875h6.10449v1.96875h2.0166v3.99219Zm6.01367-3.93848H56.96v1.9336h6.01367Z" transform="translate(-14.52295 -12.63237)"/><path class="k" d="M71.09375,104.06738v7.877H69.041v-9.89942h6.10449v2.02246Z" transform="translate(-14.52295 -12.63237)"/><path class="k" d="M85.22754,109.97559v1.96875H77.10645V100.0752h8.12109v1.96972h2.0166v2.04h-2.0166v1.916h2.0166v3.97461Zm-.05469-7.87793H79.15918v1.93359h6.01367Zm0,3.93847H79.15918v3.90332h6.01367Z" transform="translate(-14.52295 -12.63237)"/><path class="k" d="M99.36133,109.97559v1.96875H93.25684v-1.96875H91.24023v-5.96192h2.01661v-1.96875h6.10449v1.96875h2.0166v5.96192Zm-.05469-5.90821H93.293v5.87207h6.01367Z" transform="translate(-14.52295 -12.63237)"/><path class="k" d="M107.39062,111.94434v-1.96875H105.374v-5.90821h-2.0166v-2.02246h2.0166V100.0752h2.05274v1.96972h4.05176v2.02246h-4.05176v5.87207h4.05176v2.00489Z" transform="translate(-14.52295 -12.63237)"/><path class="l" d="M42.29845,13.06538l2.59808,1.5m-3.09808-.634,2.59808,1.5m-3.09808-.634,2.59808,1.5m8.3923,9.4641,2.59808,1.5m7.79423,4.5,2.59807,1.5m-13.49038-6.634,2.59808,1.5m7.79423,4.5,2.59807,1.5m-13.49038-6.634,2.59808,1.5m7.79423,4.5,2.59807,1.5m-8.29422-3.634,5.19615,3m-5.69615-2.134,5.19615,3m-5.69615-2.134,5.19615,3m-26.48076-14.134,2.59807,1.5m28.57884,16.5,2.59808,1.5m-34.275-18.634,2.59807,1.5m28.57884,16.5,2.59808,1.5m-34.275-18.634,2.59807,1.5m28.57884,16.5,2.59808,1.5m-34.275-18.634,2.59807,1.5m-3.09807-.634,2.59807,1.5m-3.09807-.634,2.59807,1.5m-3.09807-.634,2.59807,1.5m-3.09807-.634,2.59807,1.5m-3.09807-.634,2.59807,1.5m-3.09807-.634,2.59807,1.5m-3.09807-.634,2.59807,1.5m-3.09807-.634,2.59807,1.5" transform="translate(-14.52295 -12.63237)"/><path class="m" d="M44.89653,14.56538l12.99038,7.5m-13.49038-6.634,12.99038,7.5m-13.49038-6.634,12.99038,7.5m-.5.866,2.59808,1.5m7.79422,4.5,2.59808,1.5m-13.49038-6.634,2.59808,1.5m7.79422,4.5,2.59808,1.5m-13.49038-6.634,2.59808,1.5m7.79422,4.5,2.59808,1.5m-10.8923-5.134,2.59807,1.5m7.79423,4.5,2.59808,1.5M56.985,29.62756l2.59807,1.5m7.79423,4.5,2.59808,1.5M56.485,30.49358l2.59807,1.5m7.79423,4.5,2.59808,1.5m-3.09808-.634,2.59808,1.5m-3.09808-.634,2.59808,1.5m-3.09808-.634,2.59808,1.5m-42.06922-23.134,2.59807,1.5m2.59808,1.5,2.59808,1.5m2.59807,1.5,5.19615,3m12.99039,7.5,2.59807,1.5m-31.67691-17.134,2.59807,1.5m2.59808,1.5,2.59808,1.5m2.59807,1.5,5.19615,3m12.99039,7.5,2.59807,1.5m-31.67691-17.134,2.59807,1.5m2.59808,1.5,2.59808,1.5m2.59807,1.5,5.19615,3m12.99039,7.5,2.59807,1.5m-31.67691-17.134,2.59807,1.5m7.79423,4.5,5.19615,3m12.99039,7.5,5.19615,3m2.59807,1.5,2.59808,1.5m-39.47114-21.634,2.59807,1.5m7.79423,4.5,5.19615,3m12.99039,7.5,5.19615,3m2.59807,1.5,2.59808,1.5m-39.47114-21.634,2.59807,1.5m7.79423,4.5,5.19615,3m12.99039,7.5,5.19615,3m2.59807,1.5,2.59808,1.5m-39.47114-21.634,2.59807,1.5m10.39231,6,5.19615,3m10.39231,6,2.59807,1.5m-31.67691-17.134,2.59807,1.5m10.39231,6,5.19615,3m10.39231,6,2.59807,1.5m-31.67691-17.134,2.59807,1.5m10.39231,6,5.19615,3m10.39231,6,2.59807,1.5M26.6023,28.25191l2.59808,1.5m2.59807,1.5,2.59808,1.5m-8.29423-3.634,2.59808,1.5m2.59807,1.5,2.59808,1.5M25.6023,29.984l2.59808,1.5m2.59807,1.5,2.59808,1.5m-3.09808-.634,5.19615,3m10.39231,6,2.59808,1.5M29.79845,34.716l5.19615,3m10.39231,6,2.59808,1.5M29.29845,35.582l5.19615,3m10.39231,6,2.59808,1.5m-16.08846-8.134,12.99038,7.5m-13.49038-6.634,12.99038,7.5m-13.49038-6.634,12.99038,7.5" transform="translate(-14.52295 -12.63237)"/><path class="n" d="M38.20038,14.16346l2.59807,1.5m-3.09807-.634,2.59807,1.5m-3.09807-.634,2.59807,1.5m-3.09807-.634,2.59807,1.5m2.59808,1.5,2.59807,1.5m5.19616,3,2.59807,1.5m-16.08845-8.134,2.59807,1.5m2.59808,1.5,2.59807,1.5m5.19616,3,2.59807,1.5m-16.08845-8.134,2.59807,1.5m2.59808,1.5,2.59807,1.5m5.19616,3,2.59807,1.5m-21.28461-11.134,7.79423,4.5m-8.29423-3.634,7.79423,4.5m-8.29423-3.634,7.79423,4.5m21.38269,16.9641,2.59807,1.5m2.59808,1.5,2.59808,1.5m-8.29423-3.634,2.59807,1.5m2.59808,1.5,2.59808,1.5m-8.29423-3.634,2.59807,1.5m2.59808,1.5,2.59808,1.5m-10.89231-5.134,2.59808,1.5m2.59807,1.5,2.59808,1.5m-8.29423-3.634,2.59808,1.5m2.59807,1.5,2.59808,1.5m-8.29423-3.634,2.59808,1.5m2.59807,1.5,2.59808,1.5m-39.47114-21.634,2.59807,1.5m25.98077,15,2.59807,1.5m-31.67691-17.134,2.59807,1.5m25.98077,15,2.59807,1.5M20.40615,26.984l2.59807,1.5m25.98077,15,2.59807,1.5M22.50422,29.35l7.79423,4.5M48.485,44.35l2.59807,1.5M22.00422,30.216l7.79423,4.5M47.985,45.216l2.59807,1.5M21.50422,31.082l7.79423,4.5M47.485,46.082l2.59807,1.5m-21.28461-11.134,2.59808,1.5m12.99038,7.5,2.59808,1.5m-18.68654-9.634,2.59808,1.5m12.99038,7.5,2.59808,1.5m-18.68654-9.634,2.59808,1.5m12.99038,7.5,2.59808,1.5m-16.08846-8.134,12.99038,7.5m-13.49038-6.634,12.99038,7.5m-13.49038-6.634,12.99038,7.5" transform="translate(-14.52295 -12.63237)"/><path class="o" d="M40.79845,15.66346l2.59808,1.5m-3.09808-.634,2.59808,1.5m-3.09808-.634,2.59808,1.5m-4.59808,1.9641,2.59808,1.5m12.99038,7.5,2.59808,1.5m5.19615,3,2.59807,1.5m-26.48076-14.134,2.59808,1.5m12.99038,7.5,2.59808,1.5m5.19615,3,2.59807,1.5m-26.48076-14.134,2.59808,1.5m12.99038,7.5,2.59808,1.5m5.19615,3,2.59807,1.5M41.4946,26.45769l12.99039,7.5m2.59807,1.5,7.79423,4.5M40.9946,27.32371l12.99039,7.5m2.59807,1.5,7.79423,4.5M40.4946,28.18974l12.99039,7.5m2.59807,1.5,7.79423,4.5M39.9946,29.05576l12.99039,7.5m-13.49039-6.634,12.99039,7.5m-13.49039-6.634,12.99039,7.5m-26.48077-14.134,2.59808,1.5m12.99038,7.5,7.79423,4.5m-23.88269-12.634,2.59808,1.5m12.99038,7.5,7.79423,4.5m-23.88269-12.634,2.59808,1.5m12.99038,7.5,7.79423,4.5m-23.88269-12.634,2.59808,1.5m20.78461,12,2.59808,1.5m-26.48077-14.134,2.59808,1.5m20.78461,12,2.59808,1.5M23.00422,28.484l2.59808,1.5m20.78461,12,2.59808,1.5M35.4946,36.85l10.39231,6M34.9946,37.716l10.39231,6M34.4946,38.582l10.39231,6" transform="translate(-14.52295 -12.63237)"/><path class="p" d="M43.39653,17.16346l2.59807,1.5m-3.09807-.634,2.59807,1.5m-3.09807-.634,2.59807,1.5m-5.69615-2.134,2.59808,1.5m-3.09808-.634,2.59808,1.5m-3.09808-.634,2.59808,1.5m-.5.866,5.19615,3m5.19615,3,2.59808,1.5m10.3923,6,2.59808,1.5m-26.48076-14.134,5.19615,3m5.19615,3,2.59808,1.5m10.3923,6,2.59808,1.5m-26.48076-14.134,5.19615,3m5.19615,3,2.59808,1.5m10.3923,6,2.59808,1.5M27.00422,21.55576l2.59808,1.5m-3.09808-.634,2.59808,1.5m-3.09808-.634,2.59808,1.5" transform="translate(-14.52295 -12.63237)"/><path class="q" d="M45.9946,18.66346l10.39231,6m-10.89231-5.134,10.39231,6m-10.89231-5.134,10.39231,6m-.5.866,2.59808,1.5m7.79422,4.5,2.59808,1.5m-13.49038-6.634,2.59808,1.5m7.79422,4.5,2.59808,1.5m-13.49038-6.634,2.59808,1.5m7.79422,4.5,2.59808,1.5m-21.28461-11.134,5.19615,3m-5.69615-2.134,5.19615,3m-5.69615-2.134,5.19615,3m-21.28461-11.134,2.59808,1.5m-3.09808-.634,2.59808,1.5m-3.09808-.634,2.59808,1.5" transform="translate(-14.52295 -12.63237)"/><path class="r" d="M44.4946,21.26153l5.19616,3m-5.69616-2.134,5.19616,3m-5.69616-2.134,5.19616,3" transform="translate(-14.52295 -12.63237)"/><path class="s" d="M33.29845,28.65384l2.59808,1.5m-3.09808-.634,2.59808,1.5m-3.09808-.634,2.59808,1.5m-.5.866,2.59807,1.5m-3.09807-.634,2.59807,1.5m-3.09807-.634,2.59807,1.5" transform="translate(-14.52295 -12.63237)"/><path class="t" d="M48.88691,37.65384l2.59808,1.5m-3.09808-.634,2.59808,1.5m-3.09808-.634,2.59808,1.5m-10.89231-5.134,2.59808,1.5m-3.09808-.634,2.59808,1.5m-3.09808-.634,2.59808,1.5" transform="translate(-14.52295 -12.63237)"/><path class="u" d="M36.9946,34.25191l2.59808,1.5m-3.09808-.634,2.59808,1.5m-3.09808-.634,2.59808,1.5" transform="translate(-14.52295 -12.63237)"/><path class="v" d="M42.19076,37.25191l5.19615,3m-5.69615-2.134,5.19615,3m-5.69615-2.134,5.19615,3" transform="translate(-14.52295 -12.63237)"/></svg>